<?xml version="1.0" standalone="no"?>
<!DOCTYPE svg PUBLIC "-//W3C//DTD SVG 20010904//EN"
 "http://www.w3.org/TR/2001/REC-SVG-20010904/DTD/svg10.dtd">
<svg version="1.0" xmlns="http://www.w3.org/2000/svg"
 width="638.000000pt" height="216.000000pt" viewBox="0 0 638.000000 216.000000"
 preserveAspectRatio="xMidYMid meet">

<g transform="translate(0.000000,216.000000) scale(0.100000,-0.100000)"
fill="#000000" stroke="none">
<path d="M1135 2060 l-27 -28 23 -34 c13 -18 25 -35 27 -37 1 -3 9 5 17 17 9
11 22 27 29 35 11 11 9 18 -14 44 l-28 31 -27 -28z"/>
<path d="M888 1936 c-51 -50 -78 -68 -120 -80 -31 -9 -72 -31 -97 -53 -24 -20
-66 -47 -92 -60 -34 -15 -58 -36 -81 -70 -18 -26 -133 -150 -255 -274 -165
-167 -223 -232 -223 -250 -1 -19 70 -94 314 -335 527 -520 813 -794 832 -794
18 0 106 84 609 581 393 387 535 534 535 550 0 7 -94 108 -209 223 -116 116
-232 240 -258 276 -35 47 -62 72 -100 91 -29 15 -71 42 -93 61 -22 19 -63 42
-91 52 -37 11 -71 34 -121 81 -37 36 -75 65 -83 65 -35 0 -22 -27 46 -96 57
-57 80 -74 102 -74 38 0 101 -34 125 -67 13 -18 36 -33 65 -40 58 -16 103 -54
117 -101 9 -28 66 -90 231 -254 l219 -217 -547 -540 -547 -539 -176 168 c-96
92 -344 335 -550 538 l-375 371 222 222 c123 123 223 229 223 237 0 46 61 99
133 117 15 4 37 20 48 36 26 37 88 69 131 69 28 0 45 11 102 69 47 47 67 74
63 85 -11 27 -30 18 -99 -48z"/>
<path d="M992 1795 c-30 -21 -72 -96 -72 -128 0 -14 12 -39 26 -56 26 -32 26
-61 0 -61 -8 0 -28 17 -45 37 -25 30 -31 47 -31 83 0 26 7 55 15 66 24 32 17
37 -37 31 -42 -5 -59 -13 -80 -37 -16 -17 -28 -41 -28 -54 0 -12 -9 -31 -20
-41 -21 -19 -50 -14 -50 10 0 19 -23 19 -59 0 -32 -16 -41 -33 -41 -78 -1 -25
-8 -37 -32 -52 -17 -11 -40 -32 -51 -47 l-20 -27 27 -32 c15 -17 36 -49 47
-71 14 -28 24 -37 32 -30 13 11 53 16 101 14 47 -3 111 -75 125 -140 12 -59 9
-72 -19 -72 -14 0 -21 10 -26 38 -14 78 -53 122 -109 122 -39 0 -48 -7 -73
-56 -12 -23 -28 -44 -37 -47 -8 -4 -48 -2 -88 3 -39 5 -75 10 -79 10 -13 0 -9
-48 6 -83 23 -56 55 -73 124 -69 12 1 49 27 82 57 38 35 65 52 75 49 25 -10
17 -38 -20 -74 -31 -30 -33 -35 -18 -42 30 -11 374 -7 423 5 32 9 51 21 67 46
21 31 23 45 23 179 0 133 -1 144 -17 137 -10 -4 -34 -9 -54 -12 -34 -5 -37 -8
-42 -45 -3 -22 -16 -51 -28 -64 -21 -22 -23 -33 -20 -100 3 -80 -15 -129 -44
-118 -11 5 -13 19 -8 67 3 34 0 80 -6 102 -10 38 -9 40 24 71 46 42 48 88 5
129 -16 16 -30 35 -30 42 0 23 30 26 53 6 53 -49 108 -52 147 -10 18 18 20 36
20 154 0 172 -14 203 -89 203 -14 0 -36 -7 -49 -15z m-198 -210 c-1 -11 -7
-41 -15 -67 -13 -47 -13 -47 25 -102 36 -53 43 -93 13 -84 -11 4 -67 71 -84
103 -7 11 -19 11 -76 1 -56 -11 -69 -11 -79 1 -17 21 1 32 78 46 l69 13 13 44
c8 25 16 51 18 58 6 21 39 9 38 -13z"/>
<path d="M1221 1784 c-28 -36 -33 -73 -29 -203 3 -125 15 -147 79 -157 28 -5
41 0 73 25 22 18 44 30 50 28 18 -6 19 -46 1 -53 -24 -10 -46 -60 -39 -89 3
-14 19 -36 36 -50 l29 -24 -13 -61 c-9 -44 -9 -71 -1 -100 8 -32 7 -42 -4 -52
-11 -9 -18 -8 -31 6 -13 13 -17 35 -17 99 0 71 -4 87 -23 111 -12 16 -25 46
-28 66 -6 34 -10 38 -43 43 -20 3 -44 8 -54 12 -18 8 -19 1 -15 -136 4 -159
14 -194 65 -219 32 -15 352 -27 429 -15 l47 7 -43 43 c-23 24 -39 48 -36 54
13 20 42 12 72 -20 44 -46 90 -71 131 -71 30 0 44 7 70 35 29 32 53 100 40
113 -3 3 -41 0 -84 -6 -44 -6 -87 -8 -95 -5 -8 3 -26 27 -39 53 -20 40 -29 47
-57 50 -58 6 -110 -44 -121 -116 -5 -28 -12 -38 -29 -40 -19 -3 -22 1 -22 34
0 53 35 120 78 149 39 27 116 34 152 15 15 -8 20 -4 31 23 7 17 28 48 46 68
l32 35 -19 32 c-11 18 -36 40 -55 49 -29 14 -35 22 -35 49 0 46 -9 63 -41 79
-39 21 -59 19 -59 -6 0 -15 -5 -20 -22 -17 -23 3 -39 28 -55 83 -10 37 -61 65
-117 65 -38 0 -38 0 -23 -24 38 -57 30 -118 -23 -173 -48 -52 -78 -11 -31 42
17 20 31 44 31 53 0 21 -55 111 -79 129 -9 7 -33 13 -53 13 -28 0 -41 -6 -57
-26z m359 -224 c20 -59 27 -70 50 -70 11 0 42 -5 70 -11 40 -9 50 -15 50 -31
0 -19 -4 -20 -61 -14 -33 4 -66 9 -73 12 -8 3 -28 -18 -51 -51 -39 -59 -59
-75 -77 -57 -6 6 3 30 31 74 l41 65 -18 54 c-11 30 -17 60 -14 67 9 27 37 6
52 -38z"/>
<path d="M2678 1653 c-11 -14 -108 -243 -165 -390 -4 -9 7 -13 36 -13 39 0 42
2 57 40 l16 40 65 0 65 0 -7 27 c-10 41 -24 53 -61 53 l-33 0 31 78 c17 42 34
80 37 84 4 4 36 -66 72 -155 l65 -162 37 -3 c20 -2 37 1 37 6 0 13 -151 385
-163 400 -14 18 -72 15 -89 -5z"/>
<path d="M3050 1505 c0 -184 10 -228 55 -245 15 -6 76 -10 136 -10 l109 0 0
35 0 35 -104 0 c-73 0 -107 4 -113 13 -4 6 -10 84 -13 172 l-5 160 -32 3 -33
3 0 -166z"/>
<path d="M3470 1636 l0 -35 73 -3 72 -3 3 -172 2 -173 35 0 35 0 0 175 0 174
73 3 72 3 0 30 0 30 -182 3 -183 2 0 -34z"/>
<path d="M3950 1635 l0 -35 160 0 160 0 0 35 0 35 -160 0 -160 0 0 -35z"/>
<path d="M4384 1656 c-3 -8 -4 -23 -2 -33 3 -16 17 -18 127 -21 71 -1 130 -7
138 -14 14 -11 17 -56 5 -75 -5 -8 -49 -13 -137 -15 l-130 -3 0 -120 0 -120
35 0 35 0 3 83 3 83 56 -3 56 -3 46 -82 c45 -81 47 -83 84 -83 20 0 37 5 37
11 0 6 -18 41 -40 78 -22 37 -40 71 -40 77 0 5 10 14 22 19 36 16 49 53 45
124 -3 55 -7 67 -31 87 -26 23 -34 24 -167 24 -112 0 -141 -3 -145 -14z"/>
<path d="M4860 1635 l0 -35 160 0 160 0 0 35 0 35 -160 0 -160 0 0 -35z"/>
<path d="M5306 1654 c-13 -13 -16 -45 -16 -198 0 -128 4 -186 12 -194 8 -8 54
-12 139 -12 122 0 129 1 158 26 41 34 54 88 49 210 -6 161 -33 184 -217 184
-86 0 -113 -3 -125 -16z m245 -73 c23 -18 24 -26 24 -126 0 -133 -2 -135 -127
-135 l-88 0 0 133 c0 74 3 137 7 140 3 4 41 7 84 7 61 0 82 -4 100 -19z"/>
<path d="M3966 1485 c-20 -21 -22 -122 -2 -169 24 -58 46 -66 184 -66 l123 0
-3 43 -3 42 -110 3 c-118 3 -135 10 -135 59 0 22 3 22 123 25 l122 3 0 35 0
35 -142 3 c-118 2 -144 0 -157 -13z"/>
<path d="M4876 1487 c-16 -12 -18 -24 -14 -97 5 -78 7 -85 37 -112 31 -28 33
-28 157 -28 l125 0 -3 43 -3 42 -109 3 c-61 1 -116 8 -123 14 -7 6 -13 23 -13
39 l0 28 123 3 122 3 0 35 0 35 -140 3 c-106 2 -145 -1 -159 -11z"/>
<path d="M402 1352 c-18 -25 -47 -110 -40 -117 2 -2 38 -6 80 -10 98 -9 102
-1 53 89 -41 74 -62 83 -93 38z"/>
<path d="M1862 1368 c-31 -39 -71 -120 -65 -134 5 -14 17 -15 82 -10 41 4 77
9 79 11 11 11 -13 90 -35 115 -27 32 -45 37 -61 18z"/>
<path d="M3056 1082 c-17 -20 -166 -375 -166 -398 0 -9 12 -14 35 -14 33 0 37
4 55 45 l19 45 61 0 c48 0 60 3 60 16 0 34 -20 54 -55 54 -19 0 -35 3 -35 8 0
20 64 162 70 155 4 -4 35 -79 70 -165 l62 -158 32 0 c18 0 35 3 38 6 9 9 -151
397 -170 412 -23 17 -56 15 -76 -6z"/>
<path d="M4068 1088 c-16 -13 -168 -379 -168 -405 0 -8 13 -13 35 -13 31 0 36
4 54 45 l20 45 60 0 c49 0 61 3 61 16 0 34 -20 54 -55 54 -19 0 -35 3 -35 8 0
20 64 162 70 155 4 -4 35 -79 70 -165 l62 -158 34 0 c21 0 34 5 34 13 0 22
-146 377 -163 398 -19 22 -56 25 -79 7z"/>
<path d="M2425 1079 c-4 -5 -4 -21 -1 -35 6 -24 7 -24 135 -24 108 0 130 -3
135 -16 10 -26 7 -61 -7 -72 -8 -7 -67 -13 -138 -14 l-124 -3 -3 -99 c-5 -132
0 -148 41 -144 l32 3 3 88 3 87 104 0 c120 0 131 3 150 41 31 58 12 177 -30
193 -29 11 -293 7 -300 -5z"/>
<path d="M3420 1055 l0 -35 130 0 c130 0 131 0 140 -25 6 -16 6 -34 0 -50 -9
-25 -10 -25 -140 -25 l-130 0 0 -125 0 -125 35 0 35 0 0 90 0 90 58 0 57 0 50
-90 c49 -88 51 -90 87 -90 21 0 38 4 38 10 0 5 -20 44 -45 86 -25 42 -44 77
-43 78 44 26 58 42 68 72 16 49 6 122 -22 151 -21 22 -28 23 -170 23 l-148 0
0 -35z"/>
<path d="M4436 1074 c-3 -9 -6 -98 -6 -199 0 -149 3 -185 15 -195 21 -18 252
-10 283 10 42 28 56 76 56 195 0 118 -12 158 -56 189 -33 23 -283 23 -292 0z
m258 -70 c13 -12 16 -38 16 -118 0 -138 -3 -141 -117 -141 l-88 0 -3 138 -3
137 90 0 c68 0 93 -4 105 -16z"/>
<path d="M4900 880 l0 -210 35 0 35 0 0 210 0 210 -35 0 -35 0 0 -210z"/>
<path d="M5127 1070 c-35 -28 -51 -109 -44 -225 9 -158 30 -175 211 -175 147
0 148 1 144 150 l-3 102 -100 0 -100 0 0 -34 0 -33 73 -3 72 -3 0 -43 c0 -26
-6 -48 -15 -56 -22 -18 -183 -10 -195 10 -14 23 -13 233 2 248 8 8 54 12 140
12 l128 0 0 35 0 35 -144 0 c-129 0 -146 -2 -169 -20z"/>
<path d="M5567 1084 c-4 -4 -7 -99 -7 -211 l0 -204 33 3 32 3 5 163 5 162 49
-122 c27 -68 56 -131 64 -140 9 -11 29 -18 48 -18 41 0 47 9 104 155 24 61 47
114 52 119 4 6 8 -65 8 -158 l0 -167 33 3 32 3 3 185 c1 102 0 195 -3 208 -5
21 -10 23 -62 20 l-57 -3 -52 -130 c-28 -71 -56 -130 -60 -132 -5 -1 -32 57
-60 130 l-51 132 -54 3 c-30 2 -58 0 -62 -4z"/>
<path d="M504 935 c37 -28 131 -57 361 -111 127 -30 238 -57 248 -60 15 -5 17
4 17 90 l0 96 -322 0 c-286 -1 -321 -2 -304 -15z"/>
<path d="M1197 943 c-4 -3 -7 -46 -7 -95 0 -87 0 -88 23 -83 351 80 613 157
601 176 -6 10 -607 13 -617 2z"/>
<path d="M1432 757 c-191 -47 -215 -55 -228 -77 -10 -18 -13 -69 -14 -189 l0
-163 162 168 c248 258 302 314 297 313 -2 0 -100 -24 -217 -52z"/>
<path d="M749 733 c33 -38 133 -142 221 -233 l159 -165 1 166 c0 145 -2 170
-17 188 -14 16 -63 31 -215 66 -109 25 -200 45 -204 45 -3 0 21 -30 55 -67z"/>
</g>
</svg>
