<svg version="1.1" id="Layer_1" xmlns="http://www.w3.org/2000/svg" xmlns:xlink="http://www.w3.org/1999/xlink" x="0px" y="0px"
	 width="100%" viewBox="0 0 638 216" enable-background="new 0 0 638 216" xml:space="preserve">
<path fill="#FDFDFD" opacity="1.000000" stroke="none" 
	d="
M413.000000,217.000000 
	C275.333344,217.000000 138.166702,217.000000 1.000037,217.000000 
	C1.000025,145.000031 1.000025,73.000053 1.000012,1.000056 
	C213.666626,1.000037 426.333252,1.000037 638.999878,1.000019 
	C638.999939,72.999939 638.999939,144.999878 639.000000,216.999908 
	C563.833313,217.000000 488.666656,217.000000 413.000000,217.000000 
M141.992950,90.307770 
	C142.174622,90.766991 142.569626,91.258430 142.505859,91.680580 
	C141.596130,97.702560 139.423523,103.668915 142.066406,109.821159 
	C142.273529,110.303314 140.994614,112.053925 140.764999,111.986877 
	C139.642151,111.658981 137.824997,111.021255 137.730499,110.299629 
	C137.159424,105.939041 136.977448,101.526512 136.697662,97.129288 
	C136.597290,95.552048 137.081528,93.724564 136.443741,92.433891 
	C134.405823,88.309868 131.966797,84.384041 129.426163,79.932236 
	C127.104477,79.450279 123.743027,78.752487 120.092712,77.994720 
	C120.092712,86.447647 119.824120,94.766792 120.170326,103.060257 
	C120.498528,110.922226 124.510803,115.216225 132.269974,115.517166 
	C144.574081,115.994370 156.903687,115.844437 169.222687,115.866440 
	C170.671799,115.869026 172.121964,115.283699 173.571640,114.970924 
	C174.007248,114.463356 174.442856,113.955788 174.878464,113.448219 
	C173.176361,112.391708 171.117584,111.642204 169.870819,110.193764 
	C168.581467,108.695869 168.080566,106.519310 167.234756,104.639626 
	C169.133133,105.327599 171.202209,105.739365 172.883606,106.778450 
	C174.693207,107.896774 176.135666,109.607315 177.744736,111.052315 
	C181.648651,114.558144 186.217270,116.328674 190.999374,113.678757 
	C196.389420,110.691956 198.214218,105.438332 198.002548,98.942078 
	C193.612534,99.326302 189.427933,99.307426 185.420456,100.140541 
	C180.387497,101.186852 177.688217,99.485260 175.858582,94.778938 
	C173.470383,88.635857 168.003860,87.238449 163.336304,92.047287 
	C160.540283,94.927940 159.447067,99.431778 157.438705,103.124580 
	C156.835678,104.233391 155.728378,105.067955 154.852112,106.028160 
	C154.222778,104.993919 153.111603,103.992104 153.039474,102.920349 
	C152.397385,93.380730 160.735153,84.730614 170.376923,84.978050 
	C172.910034,85.043053 175.425201,85.807495 177.389252,86.152489 
	C180.577927,81.628510 183.588852,77.356705 187.250595,72.161530 
	C184.125977,69.178787 180.630951,65.842453 176.623062,62.016548 
	C176.925385,54.210014 173.926636,50.897015 166.218994,51.101536 
	C165.576401,52.496071 165.023209,53.696579 164.470016,54.897087 
	C163.137131,54.078186 161.486740,53.514477 160.563766,52.366123 
	C159.700867,51.292526 159.311646,49.614433 159.235809,48.174904 
	C159.026932,44.209663 156.554153,42.026707 153.266647,41.008453 
	C150.059296,40.015030 146.603973,39.822292 142.028717,39.078201 
	C147.203629,46.551960 148.515182,53.003258 142.428497,58.962166 
	C141.104279,60.258564 138.911148,60.667397 137.118225,61.485016 
	C137.651260,59.685768 137.718369,57.502796 138.816742,56.169147 
	C140.940948,53.589928 142.849380,51.125031 141.397919,47.697704 
	C140.432800,45.418839 139.002609,43.335537 137.764069,41.174160 
	C135.267197,36.816868 131.644897,34.508434 126.602058,35.969883 
	C121.438232,37.466381 120.112228,41.708317 120.081818,46.534008 
	C120.044037,52.530697 120.186783,58.530697 120.034607,64.523758 
	C119.923622,68.894699 120.954674,72.432281 125.373314,74.226440 
	C129.754593,76.005424 133.341293,75.122124 136.639694,71.608994 
	C137.622421,70.562309 139.854401,70.688522 141.513977,70.277328 
	C140.987762,71.761093 140.866104,73.638969 139.868240,74.663292 
	C134.290253,80.389191 134.655777,85.067818 141.992950,90.307770 
M74.533714,115.950188 
	C83.858658,115.839249 93.198677,116.013237 102.503464,115.521187 
	C109.147491,115.169846 113.300591,112.013054 113.719208,106.166794 
	C114.386330,96.850151 113.897499,87.450737 113.897499,78.181396 
	C110.148407,78.904724 106.770325,79.556465 104.271484,80.038574 
	C102.511536,83.902695 100.808418,87.355728 99.369743,90.915649 
	C98.593613,92.836174 97.980965,94.914497 97.803131,96.965721 
	C97.448349,101.057770 97.680168,105.211708 97.138702,109.269218 
	C96.993179,110.359726 94.935471,111.195045 93.755547,112.147514 
	C93.395905,110.760643 92.781372,109.383995 92.725273,107.984947 
	C92.568291,104.069771 93.099167,100.072220 92.487274,96.246552 
	C91.950928,92.893280 91.533836,90.580833 95.017960,88.273148 
	C99.167252,85.524872 99.171173,80.163216 96.232231,76.425545 
	C94.801308,74.605728 92.697105,70.782013 93.065155,70.476494 
	C96.401909,67.706635 97.438972,72.404938 99.821404,73.000031 
	C102.840836,73.754227 106.379326,74.826195 109.036797,73.891884 
	C111.248451,73.114326 113.772530,69.736710 113.961845,67.337448 
	C114.575996,59.554192 114.649414,51.647144 113.919357,43.882896 
	C113.663399,41.160656 110.972275,37.494381 108.489143,36.486629 
	C106.038109,35.491901 101.667175,36.340405 99.492905,38.076500 
	C92.089783,43.987690 91.615395,49.789932 96.863098,57.457870 
	C97.051086,57.732567 97.443901,58.004089 97.427948,58.257370 
	C97.362595,59.295483 97.454185,60.519897 96.923149,61.282322 
	C96.631325,61.701313 95.060150,61.644604 94.332359,61.276024 
	C90.138084,59.151894 86.993538,52.399872 88.161064,47.550957 
	C88.788216,44.946297 90.123985,42.512260 91.150879,39.974380 
	C80.921959,39.101959 77.584641,41.351624 74.507759,50.486046 
	C73.941849,52.166077 72.114052,53.421051 70.868713,54.872215 
	C69.739120,53.641624 68.609535,52.411037 67.255829,50.936295 
	C60.274757,51.281425 58.191227,53.556774 57.839146,60.935230 
	C57.774857,62.282505 56.278057,63.712666 55.165611,64.828484 
	C52.514736,67.487373 49.698338,69.981247 47.691517,71.850113 
	C51.394535,77.631180 54.224625,82.049461 57.053226,86.465401 
	C69.713684,81.822868 81.393776,89.483894 81.224541,102.456314 
	C81.208893,103.655975 80.031578,104.840485 79.393669,106.032036 
	C78.534157,105.055428 77.355087,104.209229 76.890717,103.071358 
	C76.209755,101.402771 76.281868,99.427841 75.606468,97.755775 
	C73.738022,93.130150 70.530472,89.898392 65.302856,89.457870 
	C60.555119,89.057777 59.231438,92.677177 57.869518,96.175720 
	C56.627956,99.365074 54.471798,100.774384 50.873058,100.277359 
	C46.151184,99.625206 41.374359,99.370903 36.291718,98.916000 
	C36.573082,101.033264 36.685497,102.667572 37.018230,104.255730 
	C39.260136,114.956429 48.417465,118.119972 56.826328,111.067642 
	C58.989578,109.253365 60.798698,106.988663 63.069469,105.343544 
	C64.089798,104.604355 65.845428,104.880104 67.267410,104.695320 
	C67.027725,106.004036 67.233147,107.752594 66.460419,108.534569 
	C64.553993,110.463821 62.198788,111.949600 60.023991,113.613647 
	C60.424278,114.392494 60.824566,115.171341 61.224854,115.950188 
	C65.333244,115.950188 69.441628,115.950188 74.533714,115.950188 
M186.528564,61.894726 
	C199.627869,75.335983 212.727173,88.777237 226.115845,102.515404 
	C190.140762,137.975845 153.817093,173.779907 117.329460,209.745575 
	C80.534920,173.720032 44.159794,138.105118 6.957674,101.680504 
	C9.078503,99.977608 11.016262,98.660568 12.670904,97.052254 
	C20.314068,89.623116 28.195177,82.402718 35.380783,74.549179 
	C42.375736,66.904015 50.747105,60.566769 55.411880,50.565468 
	C57.081589,46.985607 64.730217,46.657516 68.264778,43.360355 
	C72.173714,39.713970 75.169220,34.702488 80.957817,34.689049 
	C85.813721,34.677773 88.582779,32.220116 91.433807,29.146065 
	C93.018761,27.437122 94.874046,25.960651 96.331100,24.156225 
	C97.934052,22.171120 102.331352,20.337521 99.424530,17.527609 
	C96.613037,14.809866 94.406807,18.797119 92.230568,20.617994 
	C88.326973,23.884155 84.615135,27.496267 80.322899,30.156719 
	C71.526520,35.608974 62.342304,40.432346 53.460636,45.753124 
	C51.866837,46.707924 50.970348,48.817039 49.732723,50.377983 
	C46.846569,54.018135 44.235485,57.929493 41.004116,61.233288 
	C29.355042,73.143486 17.486082,84.838440 5.720224,96.634682 
	C1.536594,100.829117 1.475129,102.939507 5.498825,107.169014 
	C8.253820,110.064911 11.127587,112.849304 13.984289,115.646751 
	C46.716881,147.700378 79.447701,179.755798 112.204666,211.784515 
	C116.452774,215.938171 118.559959,216.098877 122.353874,212.363724 
	C157.731110,177.534454 193.083069,142.679443 228.391174,107.780113 
	C233.237381,102.990021 233.119827,101.040710 228.267258,96.158951 
	C217.344070,85.170052 206.273666,74.324646 195.496216,63.195171 
	C191.357788,58.921547 188.151123,53.743263 183.996597,49.488102 
	C176.087921,41.387867 165.948242,36.461033 156.219513,30.989170 
	C153.094147,29.231333 149.845566,27.599609 147.015320,25.436554 
	C144.257599,23.328922 142.134781,20.391388 139.380173,18.278463 
	C138.281540,17.435764 136.236313,17.827112 134.622009,17.656691 
	C134.989090,19.073957 134.950790,20.835829 135.804153,21.839718 
	C137.840332,24.235029 140.412735,26.165714 142.556717,28.480276 
	C145.660721,31.831240 148.995132,34.087418 153.802475,34.963497 
	C157.229691,35.588062 160.230072,38.605225 163.396408,40.593693 
	C165.621124,41.990807 167.627228,44.044430 170.041840,44.769405 
	C175.862625,46.517059 180.092545,49.533550 182.167648,55.496864 
	C182.914764,57.643875 184.704956,59.427914 186.528564,61.894726 
M591.490173,129.042847 
	C592.963928,125.540344 594.437683,122.037849 595.911438,118.535347 
	C596.274536,118.642632 596.637634,118.749908 597.000732,118.857193 
	C597.000732,129.097351 597.000732,139.337494 597.000732,149.719238 
	C599.448364,149.719238 601.494385,149.719238 604.057983,149.719238 
	C604.057983,137.783966 604.077148,126.168800 604.045410,114.553780 
	C604.036804,111.392570 604.405762,107.743851 599.877502,107.380638 
	C595.785645,107.052437 591.707825,106.454880 589.835388,112.086975 
	C587.243225,119.883797 583.820129,127.404366 580.371094,135.993988 
	C576.989380,127.523682 573.975525,119.998711 570.981018,112.466019 
	C568.987854,107.452141 566.877930,106.442360 560.767273,107.308365 
	C555.841125,108.006500 556.603271,111.812729 556.551514,114.986282 
	C556.421204,122.977272 556.505737,130.971771 556.504517,138.964859 
	C556.503967,142.548904 556.504395,146.132935 556.504395,149.655853 
	C559.425720,149.655853 561.475098,149.655853 563.961670,149.655853 
	C563.961670,139.087326 563.961670,128.899185 563.961670,118.711037 
	C567.855896,126.009888 570.917664,133.456238 573.873413,140.944443 
	C575.062744,143.957443 577.029480,145.253189 580.339417,145.274521 
	C583.712097,145.296249 585.629028,143.795288 586.779907,140.868515 
	C588.238953,137.158264 589.701660,133.449478 591.490173,129.042847 
M518.638245,116.015297 
	C520.901062,115.689529 523.159302,115.126541 525.427551,115.082855 
	C532.004333,114.956177 538.585083,115.037987 545.001587,115.037987 
	C546.228760,108.663139 545.923645,107.357597 542.886292,107.325974 
	C534.904175,107.242828 526.909790,107.294579 518.937744,107.666176 
	C513.774963,107.906822 510.335693,111.203819 509.989563,116.163536 
	C509.425446,124.247002 509.172455,132.441422 509.867554,140.495865 
	C510.444946,147.186264 514.243164,149.811996 521.131653,149.996414 
	C526.953857,150.152283 532.784241,149.981537 538.608643,150.085876 
	C542.711975,150.159378 544.959473,148.095612 545.198364,144.212051 
	C545.545349,138.573532 545.644348,132.909088 545.527100,127.262367 
	C545.505615,126.227089 543.985596,124.377731 543.098328,124.341370 
	C536.851868,124.085358 530.589905,124.205513 524.411499,124.205513 
	C524.411499,127.245667 524.411499,129.447845 524.411499,132.113556 
	C529.260925,132.113556 533.677185,132.113556 537.849854,132.113556 
	C537.849854,135.674683 537.849854,138.754242 537.849854,142.162125 
	C531.983337,142.162125 526.507629,142.372833 521.069580,142.013153 
	C519.719116,141.923828 517.393372,139.998474 517.383423,138.900192 
	C517.316406,131.485535 517.751648,124.066345 518.638245,116.015297 
M566.121338,75.369408 
	C566.036316,70.885689 566.277283,66.366577 565.795227,61.925968 
	C564.918640,53.852058 560.677551,50.093174 552.651062,49.906994 
	C546.838257,49.772156 541.019775,49.849434 535.204102,49.882446 
	C531.784973,49.901855 530.003296,51.589157 530.008484,55.112026 
	C530.024170,65.746811 530.038818,76.381958 529.963013,87.016319 
	C529.936157,90.787338 531.800964,92.547050 535.392944,92.603935 
	C540.044556,92.677597 544.698181,92.638580 549.350891,92.628792 
	C561.772339,92.602661 565.506897,88.963882 566.121338,75.369408 
M469.137268,92.608841 
	C471.300934,92.466629 473.464600,92.324425 476.424866,92.129852 
	C472.865601,85.905251 469.846832,80.625900 466.831238,75.352135 
	C473.379120,71.630402 475.132629,67.750786 474.193207,59.441307 
	C473.433899,52.725460 470.542145,49.983418 463.853241,49.886726 
	C457.698608,49.797764 451.541718,49.864735 445.385803,49.865524 
	C438.485229,49.866409 438.485229,49.867638 439.658386,57.576145 
	C446.622284,57.576145 453.723663,57.675716 460.820251,57.533539 
	C464.293976,57.463947 466.717346,58.146523 466.747864,62.280159 
	C466.777313,66.267258 464.730560,67.336441 461.053406,67.209633 
	C454.904846,66.997612 448.742249,67.229080 442.588379,67.117889 
	C440.051361,67.072052 438.983978,67.918312 439.037933,70.565750 
	C439.163361,76.719093 439.191284,82.879776 439.027771,89.031349 
	C438.948792,92.002281 440.278961,92.708076 442.929504,92.687271 
	C445.488159,92.667183 447.040009,92.177948 446.922333,89.115456 
	C446.745605,84.514702 446.876373,79.902138 446.876373,75.478920 
	C454.251160,73.649689 459.314514,75.165489 462.111572,82.486298 
	C463.488251,86.089539 466.243225,89.166176 469.137268,92.608841 
M443.702393,132.280121 
	C443.694977,136.446259 443.705322,140.612518 443.674652,144.778473 
	C443.648987,148.267609 445.339691,150.044708 448.835480,150.043579 
	C455.001099,150.041580 461.172882,150.187103 467.330658,149.960464 
	C473.916595,149.718079 478.288452,146.308884 478.940430,139.806183 
	C479.649017,132.739105 479.715576,125.505638 479.076569,118.433777 
	C478.420807,111.176239 474.488770,107.864899 467.168396,107.425690 
	C461.189880,107.066986 455.175262,107.260185 449.177155,107.295197 
	C445.242828,107.318161 443.578583,109.360413 443.686432,113.327805 
	C443.849335,119.322350 443.712982,125.325027 443.702393,132.280121 
M120.074097,174.409927 
	C120.074097,177.466797 120.074097,180.523666 120.074097,184.566452 
	C135.971878,168.053802 151.040390,152.402481 167.098267,135.723557 
	C152.885056,139.056183 140.123581,142.036438 127.368637,145.044510 
	C121.553246,146.415985 120.127762,148.240448 120.083824,154.444931 
	C120.038994,160.775238 120.074036,167.106110 120.074097,174.409927 
M364.441345,137.955856 
	C365.836578,140.414841 367.566315,142.746948 368.557068,145.359329 
	C370.588409,150.715561 374.389679,150.743729 379.746826,149.350769 
	C376.519897,143.601501 373.473999,138.174744 370.428406,132.748550 
	C377.917114,128.807556 380.701569,118.645477 376.060608,111.488220 
	C375.000732,109.853706 372.803955,107.989182 371.066071,107.923096 
	C361.812592,107.571213 352.538696,107.757446 343.201630,107.757446 
	C343.201630,110.192543 343.201630,112.414093 343.201630,114.499878 
	C343.896332,114.748169 344.199829,114.949310 344.505005,114.951836 
	C349.169373,114.990509 353.937622,114.408730 358.467712,115.198601 
	C362.543121,115.909187 369.369720,111.076248 370.175262,119.778107 
	C370.610138,124.475639 369.646637,124.785873 358.705841,124.785873 
	C353.589661,124.785873 348.473511,124.785866 343.127991,124.785866 
	C343.127991,133.426254 343.127991,141.484802 343.127991,149.795929 
	C345.535980,149.795929 347.625610,149.795929 350.463226,149.795929 
	C350.463226,143.969940 350.463226,138.274841 350.463226,132.408691 
	C355.978882,132.829453 361.823975,130.091309 364.441345,137.955856 
M101.728729,143.869080 
	C91.197372,141.448944 80.666008,139.028809 70.134651,136.608658 
	C69.966202,136.959991 69.797745,137.311310 69.629295,137.662628 
	C84.196938,152.881424 98.764580,168.100204 114.144562,184.167648 
	C114.144562,172.527023 114.284996,162.128616 114.068665,151.737671 
	C113.992561,148.082443 111.827858,145.613907 107.920975,145.054581 
	C106.116943,144.796295 104.339752,144.350525 101.728729,143.869080 
M318.494659,136.118118 
	C319.611572,138.893707 320.733643,141.667221 321.844421,144.445267 
	C324.458954,150.984268 324.581635,151.047684 332.158020,149.226852 
	C327.214081,137.034958 322.264221,124.924469 317.404541,112.777878 
	C316.161438,109.670784 314.665894,106.987854 310.862030,106.869141 
	C306.815735,106.742859 305.101807,109.433739 303.781525,112.747803 
	C299.352661,123.865074 294.814697,134.938843 290.372772,146.050964 
	C289.925354,147.170319 289.846375,148.436966 289.604065,149.598495 
	C294.960480,151.060883 298.285400,149.926102 299.767059,144.519989 
	C300.110382,143.267349 302.445557,141.979706 304.009277,141.765045 
	C307.136108,141.335815 310.363312,141.637695 313.460266,141.637695 
	C313.545288,134.104965 309.201447,133.267670 303.952423,133.490219 
	C306.232452,127.744499 308.275909,122.594994 310.650726,116.610420 
	C313.369629,123.421753 315.764984,129.422531 318.494659,136.118118 
M272.147797,61.760548 
	C272.466370,61.206596 272.784912,60.652645 273.424194,59.540970 
	C277.381561,69.343109 281.131104,78.627449 284.878143,87.912781 
	C287.070801,93.346199 288.179840,93.791092 294.696320,91.475327 
	C289.452759,78.582703 284.367767,65.640274 278.802490,52.907772 
	C278.037201,51.156872 274.824646,49.424168 272.858582,49.544094 
	C270.875549,49.665054 268.202301,51.701118 267.282684,53.600693 
	C264.251282,59.862556 261.853607,66.433128 259.256714,72.902885 
	C256.749390,79.149559 254.296829,85.418213 251.796066,91.738220 
	C258.977203,93.554146 258.977203,93.554146 263.800354,83.872437 
	C267.647736,83.872437 271.735931,83.872437 275.874176,83.872437 
	C276.548340,76.738029 272.373718,75.509666 266.578888,76.018417 
	C268.521912,71.101257 270.222778,66.796921 272.147797,61.760548 
M410.400085,119.275635 
	C410.712463,118.692764 411.024841,118.109894 411.635071,116.971275 
	C415.490356,126.506020 419.623138,135.499680 422.718445,144.837219 
	C424.611420,150.547592 427.918884,150.631821 432.797913,149.597519 
	C432.373810,148.148499 432.115417,146.874496 431.636261,145.689774 
	C427.157928,134.617691 422.601898,123.576889 418.161865,112.489601 
	C416.896271,109.329254 415.206268,106.841385 411.437897,106.865051 
	C407.676514,106.888664 405.994263,109.406799 404.747375,112.555092 
	C400.838165,122.425568 396.831421,132.257385 392.871918,142.107986 
	C391.911530,144.497238 390.987366,146.901062 390.000549,149.415390 
	C397.756927,150.719055 397.576447,150.630203 400.431152,144.831436 
	C401.150024,143.371170 403.304688,142.203751 405.022125,141.756653 
	C407.046844,141.229568 409.313538,141.617813 411.475128,141.633881 
	C414.350616,141.655243 414.576660,140.343704 413.992279,137.780624 
	C412.812317,132.605087 408.694244,133.948792 404.873901,133.551010 
	C406.693054,128.836060 408.406830,124.394318 410.400085,119.275635 
M252.595703,107.271446 
	C251.097717,107.271576 249.594391,107.352798 248.102875,107.254707 
	C245.132874,107.059380 243.024307,107.293068 243.064774,111.334137 
	C243.103516,115.202377 245.192413,115.088837 247.878387,115.053398 
	C254.035645,114.972145 260.196198,115.109467 266.352539,114.998672 
	C269.656006,114.939217 270.763092,116.690208 270.851471,119.612770 
	C270.954620,123.022438 269.677673,124.891037 265.902344,124.818642 
	C258.490143,124.676514 251.073273,124.776833 243.600525,124.776833 
	C243.600525,133.608444 243.600525,141.649796 243.600525,149.793304 
	C246.119247,149.793304 248.211746,149.793304 251.008530,149.793304 
	C251.008530,143.884888 251.008530,138.204956 251.008530,132.351044 
	C254.539948,132.351044 257.364655,132.362442 260.189209,132.347916 
	C263.184753,132.332504 266.180237,132.300125 269.175568,132.261475 
	C274.323242,132.195038 277.169342,129.393768 278.007904,124.511497 
	C278.370636,122.399765 278.490631,120.196198 278.353943,118.057800 
	C277.850525,110.181046 274.902252,107.403770 267.053162,107.284927 
	C262.560211,107.216904 258.065460,107.271858 252.595703,107.271446 
M68.937851,130.578217 
	C83.872726,134.079529 98.807602,137.580826 113.915955,141.122803 
	C113.915955,134.528778 113.915955,128.479858 113.915955,122.389717 
	C92.487411,122.389717 71.369476,122.389717 50.251545,122.389717 
	C50.121086,122.820953 49.990631,123.252190 49.860172,123.683426 
	C55.965633,125.887436 62.071098,128.091446 68.937851,130.578217 
M132.869492,138.253036 
	C149.773758,133.819366 167.284607,131.371918 182.972122,122.531052 
	C162.051208,122.531052 141.130280,122.531052 120.238480,122.531052 
	C120.238480,128.881546 120.238480,134.854980 120.238480,141.256714 
	C124.353004,140.296921 128.211029,139.396942 132.869492,138.253036 
M428.096741,70.530624 
	C428.400330,67.964111 427.323822,66.970825 424.696136,67.049072 
	C419.547089,67.202377 414.369629,66.821831 409.243622,67.200050 
	C404.967804,67.515541 398.620789,64.729965 396.929108,69.452827 
	C395.186920,74.316650 396.380066,80.516502 397.368561,85.934792 
	C397.768494,88.126976 400.914429,91.283653 403.006439,91.443718 
	C411.315948,92.079514 419.702698,91.705338 428.401581,91.705338 
	C428.258392,88.828430 428.123566,86.119820 427.976044,83.155800 
	C421.727600,83.155800 416.089355,83.181412 410.451447,83.149017 
	C404.097168,83.112503 403.130096,81.949783 403.878632,74.872070 
	C410.599365,74.872070 417.382416,74.800148 424.162598,74.909050 
	C426.714661,74.950035 428.482391,74.520638 428.096741,70.530624 
M486.975922,70.133797 
	C487.007599,74.281555 486.687866,78.469360 487.154938,82.567490 
	C487.823212,88.430389 490.921539,91.816711 496.272217,92.098648 
	C503.708130,92.490471 511.180115,92.197197 518.907593,92.197197 
	C518.907593,89.228897 518.907593,86.500183 518.907593,83.155952 
	C512.851929,83.155952 507.076660,83.182594 501.301727,83.148781 
	C494.967163,83.111694 494.011566,81.969765 494.704926,74.872475 
	C501.426086,74.872475 508.211365,74.753014 514.989075,74.927368 
	C517.978516,75.004272 519.092896,74.103676 519.102905,70.987480 
	C519.112854,67.893448 518.075012,66.957542 515.047546,67.033676 
	C507.566101,67.221817 500.072693,66.978004 492.594574,67.224655 
	C490.817200,67.283279 489.080872,68.585594 486.975922,70.133797 
M370.013611,63.547951 
	C370.013611,61.612675 370.013611,59.677399 370.013611,57.565613 
	C374.441040,57.565613 378.308929,57.873531 382.069183,57.372852 
	C383.158539,57.227802 384.567047,54.803062 384.656708,53.350998 
	C384.724762,52.248848 382.954865,50.038826 381.966919,50.017899 
	C370.689484,49.779015 359.405182,49.866009 348.240051,49.866009 
	C346.610077,57.209656 346.881256,57.570011 353.570892,57.575584 
	C356.342529,57.577896 359.114197,57.575962 362.212585,57.575962 
	C362.212585,67.584938 362.209869,77.046783 362.213501,86.508629 
	C362.216095,93.275612 363.330444,94.007599 370.013519,91.397804 
	C370.013519,82.507881 370.013519,73.522186 370.013611,63.547951 
M306.007202,50.300030 
	C306.089600,61.689819 305.802277,73.100128 306.432861,84.459488 
	C306.691925,89.125954 310.463440,92.061958 315.392731,92.301857 
	C321.192963,92.584129 327.013611,92.431068 332.816742,92.674301 
	C335.882507,92.802803 336.830261,91.608078 336.877747,88.611931 
	C336.929321,85.356987 335.489288,84.576057 332.649200,84.828224 
	C331.000763,84.974586 329.328461,84.875366 327.667358,84.852242 
	C313.177032,84.650551 312.941956,87.384720 313.090698,70.356392 
	C313.149536,63.618969 313.100342,56.880604 313.100342,49.935577 
	C310.470703,49.935577 308.657959,49.935577 306.007202,50.300030 
M498.237762,138.480804 
	C498.237152,129.525116 498.193604,120.569099 498.262939,111.613960 
	C498.282990,109.026260 498.150757,107.233345 494.664856,107.187843 
	C491.070526,107.140930 490.627991,108.794151 490.654907,111.734329 
	C490.759613,123.176750 490.683136,134.620728 490.720154,146.063980 
	C490.724213,147.320129 491.025452,148.575302 491.169403,149.681396 
	C493.662628,149.681396 495.721405,149.681396 498.237762,149.681396 
	C498.237762,146.045074 498.237762,142.759293 498.237762,138.480804 
M417.482239,49.817917 
	C410.394348,49.817917 403.306488,49.817917 396.088226,49.817917 
	C396.088226,52.604729 396.088226,54.682392 396.088226,57.057098 
	C406.857483,57.057098 417.364075,57.057098 427.852966,57.057098 
	C427.852966,54.473419 427.852966,52.278316 427.852966,49.817913 
	C424.429199,49.817913 421.451569,49.817913 417.482239,49.817917 
M510.457184,49.817917 
	C502.699036,49.817917 494.940857,49.817917 487.117584,49.817917 
	C487.117584,52.660137 487.117584,54.856018 487.117584,57.087540 
	C497.925232,57.087540 508.315887,57.087540 518.770142,57.087540 
	C518.770142,54.531879 518.770142,52.338928 518.770142,49.817913 
	C516.055176,49.817913 513.748291,49.817913 510.457184,49.817917 
M192.083633,94.730911 
	C193.834000,94.448471 195.584381,94.166039 198.620209,93.676178 
	C196.538055,89.056061 195.094879,84.721107 192.726089,80.970787 
	C190.962753,78.179039 188.143661,77.819969 186.065079,81.332214 
	C184.224457,84.442406 181.922104,87.355728 180.630371,90.670357 
	C180.213821,91.739296 182.105606,94.885811 183.385559,95.185600 
	C185.833008,95.758827 188.599045,94.971825 192.083633,94.730911 
M43.710495,94.741722 
	C46.029591,94.930847 48.347427,95.253693 50.668098,95.275558 
	C53.631519,95.303467 55.095444,92.932716 53.717762,90.435814 
	C52.035664,87.387199 50.352283,84.328217 48.459831,81.409645 
	C46.283497,78.053261 43.465031,77.717476 41.437389,81.103325 
	C39.173492,84.883690 37.895950,89.254738 36.017551,93.782219 
	C39.247234,94.236633 41.038982,94.488731 43.710495,94.741722 
M113.779533,16.924255 
	C114.816795,18.552917 115.854057,20.181580 117.000694,21.981989 
	C119.022270,19.186886 120.877823,16.621334 122.663322,14.152638 
	C120.812706,11.933035 119.078255,9.852748 117.202095,7.602506 
	C115.635742,9.416750 113.972839,10.889984 112.951378,12.721048 
	C112.456306,13.608491 113.163841,15.166814 113.779533,16.924255 
z"/>
<path fill="#07090A" opacity="1.000000" stroke="none" 
	d="
M141.659348,90.057854 
	C134.655777,85.067818 134.290253,80.389191 139.868240,74.663292 
	C140.866104,73.638969 140.987762,71.761093 141.513977,70.277328 
	C139.854401,70.688522 137.622421,70.562309 136.639694,71.608994 
	C133.341293,75.122124 129.754593,76.005424 125.373314,74.226440 
	C120.954674,72.432281 119.923622,68.894699 120.034607,64.523758 
	C120.186783,58.530697 120.044037,52.530697 120.081818,46.534008 
	C120.112228,41.708317 121.438232,37.466381 126.602058,35.969883 
	C131.644897,34.508434 135.267197,36.816868 137.764069,41.174160 
	C139.002609,43.335537 140.432800,45.418839 141.397919,47.697704 
	C142.849380,51.125031 140.940948,53.589928 138.816742,56.169147 
	C137.718369,57.502796 137.651260,59.685768 137.118225,61.485016 
	C138.911148,60.667397 141.104279,60.258564 142.428497,58.962166 
	C148.515182,53.003258 147.203629,46.551960 142.028717,39.078201 
	C146.603973,39.822292 150.059296,40.015030 153.266647,41.008453 
	C156.554153,42.026707 159.026932,44.209663 159.235809,48.174904 
	C159.311646,49.614433 159.700867,51.292526 160.563766,52.366123 
	C161.486740,53.514477 163.137131,54.078186 164.470016,54.897087 
	C165.023209,53.696579 165.576401,52.496071 166.218994,51.101536 
	C173.926636,50.897015 176.925385,54.210014 176.623062,62.016548 
	C180.630951,65.842453 184.125977,69.178787 187.250595,72.161530 
	C183.588852,77.356705 180.577927,81.628510 177.389252,86.152489 
	C175.425201,85.807495 172.910034,85.043053 170.376923,84.978050 
	C160.735153,84.730614 152.397385,93.380730 153.039474,102.920349 
	C153.111603,103.992104 154.222778,104.993919 154.852112,106.028160 
	C155.728378,105.067955 156.835678,104.233391 157.438705,103.124580 
	C159.447067,99.431778 160.540283,94.927940 163.336304,92.047287 
	C168.003860,87.238449 173.470383,88.635857 175.858582,94.778938 
	C177.688217,99.485260 180.387497,101.186852 185.420456,100.140541 
	C189.427933,99.307426 193.612534,99.326302 198.002548,98.942078 
	C198.214218,105.438332 196.389420,110.691956 190.999374,113.678757 
	C186.217270,116.328674 181.648651,114.558144 177.744736,111.052315 
	C176.135666,109.607315 174.693207,107.896774 172.883606,106.778450 
	C171.202209,105.739365 169.133133,105.327599 167.234756,104.639626 
	C168.080566,106.519310 168.581467,108.695869 169.870819,110.193764 
	C171.117584,111.642204 173.176361,112.391708 174.878464,113.448219 
	C174.442856,113.955788 174.007248,114.463356 173.571640,114.970924 
	C172.121964,115.283699 170.671799,115.869026 169.222687,115.866440 
	C156.903687,115.844437 144.574081,115.994370 132.269974,115.517166 
	C124.510803,115.216225 120.498528,110.922226 120.170326,103.060257 
	C119.824120,94.766792 120.092712,86.447647 120.092712,77.994720 
	C123.743027,78.752487 127.104477,79.450279 129.426163,79.932236 
	C131.966797,84.384041 134.405823,88.309868 136.443741,92.433891 
	C137.081528,93.724564 136.597290,95.552048 136.697662,97.129288 
	C136.977448,101.526512 137.159424,105.939041 137.730499,110.299629 
	C137.824997,111.021255 139.642151,111.658981 140.764999,111.986877 
	C140.994614,112.053925 142.273529,110.303314 142.066406,109.821159 
	C139.423523,103.668915 141.596130,97.702560 142.505859,91.680580 
	C142.569626,91.258430 142.174622,90.766991 141.659348,90.057854 
M149.714798,82.313225 
	C151.031387,82.453842 152.729538,83.166122 153.575394,82.601517 
	C154.854355,81.747833 155.589569,80.035873 156.468430,78.633835 
	C160.859009,71.629539 160.818436,71.795364 168.524460,73.161583 
	C170.950027,73.591606 173.587433,72.826836 176.127884,72.608910 
	C175.514374,68.459595 171.810257,69.315498 169.461945,69.125198 
	C163.349777,68.629852 159.129868,66.688194 158.350021,59.864166 
	C158.193161,58.491447 156.397568,57.306004 155.357544,56.034222 
	C154.966278,57.755936 153.674713,60.021229 154.331985,61.109848 
	C158.174652,67.474258 155.966522,72.655464 151.942810,77.751427 
	C151.026367,78.912094 150.369598,80.277809 149.714798,82.313225 
z"/>
<path fill="#060809" opacity="1.000000" stroke="none" 
	d="
M74.041870,115.950188 
	C69.441628,115.950188 65.333244,115.950188 61.224854,115.950188 
	C60.824566,115.171341 60.424278,114.392494 60.023991,113.613647 
	C62.198788,111.949600 64.553993,110.463821 66.460419,108.534569 
	C67.233147,107.752594 67.027725,106.004036 67.267410,104.695320 
	C65.845428,104.880104 64.089798,104.604355 63.069469,105.343544 
	C60.798698,106.988663 58.989578,109.253365 56.826328,111.067642 
	C48.417465,118.119972 39.260136,114.956429 37.018230,104.255730 
	C36.685497,102.667572 36.573082,101.033264 36.291718,98.916000 
	C41.374359,99.370903 46.151184,99.625206 50.873058,100.277359 
	C54.471798,100.774384 56.627956,99.365074 57.869518,96.175720 
	C59.231438,92.677177 60.555119,89.057777 65.302856,89.457870 
	C70.530472,89.898392 73.738022,93.130150 75.606468,97.755775 
	C76.281868,99.427841 76.209755,101.402771 76.890717,103.071358 
	C77.355087,104.209229 78.534157,105.055428 79.393669,106.032036 
	C80.031578,104.840485 81.208893,103.655975 81.224541,102.456314 
	C81.393776,89.483894 69.713684,81.822868 57.053226,86.465401 
	C54.224625,82.049461 51.394535,77.631180 47.691517,71.850113 
	C49.698338,69.981247 52.514736,67.487373 55.165611,64.828484 
	C56.278057,63.712666 57.774857,62.282505 57.839146,60.935230 
	C58.191227,53.556774 60.274757,51.281425 67.255829,50.936295 
	C68.609535,52.411037 69.739120,53.641624 70.868713,54.872215 
	C72.114052,53.421051 73.941849,52.166077 74.507759,50.486046 
	C77.584641,41.351624 80.921959,39.101959 91.150879,39.974380 
	C90.123985,42.512260 88.788216,44.946297 88.161064,47.550957 
	C86.993538,52.399872 90.138084,59.151894 94.332359,61.276024 
	C95.060150,61.644604 96.631325,61.701313 96.923149,61.282322 
	C97.454185,60.519897 97.362595,59.295483 97.427948,58.257370 
	C97.443901,58.004089 97.051086,57.732567 96.863098,57.457870 
	C91.615395,49.789932 92.089783,43.987690 99.492905,38.076500 
	C101.667175,36.340405 106.038109,35.491901 108.489143,36.486629 
	C110.972275,37.494381 113.663399,41.160656 113.919357,43.882896 
	C114.649414,51.647144 114.575996,59.554192 113.961845,67.337448 
	C113.772530,69.736710 111.248451,73.114326 109.036797,73.891884 
	C106.379326,74.826195 102.840836,73.754227 99.821404,73.000031 
	C97.438972,72.404938 96.401909,67.706635 93.065155,70.476494 
	C92.697105,70.782013 94.801308,74.605728 96.232231,76.425545 
	C99.171173,80.163216 99.167252,85.524872 95.017960,88.273148 
	C91.533836,90.580833 91.950928,92.893280 92.487274,96.246552 
	C93.099167,100.072220 92.568291,104.069771 92.725273,107.984947 
	C92.781372,109.383995 93.395905,110.760643 93.755539,112.147507 
	C94.935471,111.195045 96.993179,110.359726 97.138702,109.269218 
	C97.680168,105.211708 97.448349,101.057770 97.803131,96.965721 
	C97.980965,94.914497 98.593613,92.836174 99.369743,90.915649 
	C100.808418,87.355728 102.511536,83.902695 104.271484,80.038574 
	C106.770325,79.556465 110.148407,78.904724 113.897499,78.181396 
	C113.897499,87.450737 114.386330,96.850151 113.719208,106.166794 
	C113.300591,112.013054 109.147491,115.169846 102.503464,115.521187 
	C93.198677,116.013237 83.858658,115.839249 74.041870,115.950188 
M58.370335,72.652824 
	C60.463181,72.984505 62.667255,73.911621 64.629662,73.545036 
	C73.234268,71.937675 73.208900,71.801872 78.006187,78.655830 
	C78.101334,78.791763 78.168907,78.965012 78.295471,79.058243 
	C80.211121,80.469444 82.134499,81.870155 84.056068,83.273323 
	C83.314621,80.961189 83.140762,78.193100 81.721054,76.425835 
	C78.047836,71.853386 76.540459,67.345024 79.756531,61.976807 
	C80.081398,61.434540 80.266769,60.681705 80.201889,60.059429 
	C80.067764,58.772942 79.721298,57.508595 79.462173,56.235142 
	C78.336403,57.161591 76.947548,57.909878 76.163422,59.067703 
	C75.465721,60.097927 75.335487,61.565994 75.134102,62.868538 
	C74.584106,66.425926 72.697098,68.031754 68.999611,68.577591 
	C65.420433,69.105949 62.003647,70.734360 58.370335,72.652824 
z"/>
<path fill="#0F1112" opacity="1.000000" stroke="none" 
	d="
M186.273849,61.636162 
	C184.704956,59.427914 182.914764,57.643875 182.167648,55.496864 
	C180.092545,49.533550 175.862625,46.517059 170.041840,44.769405 
	C167.627228,44.044430 165.621124,41.990807 163.396408,40.593693 
	C160.230072,38.605225 157.229691,35.588062 153.802475,34.963497 
	C148.995132,34.087418 145.660721,31.831240 142.556717,28.480276 
	C140.412735,26.165714 137.840332,24.235029 135.804153,21.839718 
	C134.950790,20.835829 134.989090,19.073957 134.622009,17.656691 
	C136.236313,17.827112 138.281540,17.435764 139.380173,18.278463 
	C142.134781,20.391388 144.257599,23.328922 147.015320,25.436554 
	C149.845566,27.599609 153.094147,29.231333 156.219513,30.989170 
	C165.948242,36.461033 176.087921,41.387867 183.996597,49.488102 
	C188.151123,53.743263 191.357788,58.921547 195.496216,63.195171 
	C206.273666,74.324646 217.344070,85.170052 228.267258,96.158951 
	C233.119827,101.040710 233.237381,102.990021 228.391174,107.780113 
	C193.083069,142.679443 157.731110,177.534454 122.353874,212.363724 
	C118.559959,216.098877 116.452774,215.938171 112.204666,211.784515 
	C79.447701,179.755798 46.716881,147.700378 13.984289,115.646751 
	C11.127587,112.849304 8.253820,110.064911 5.498825,107.169014 
	C1.475129,102.939507 1.536594,100.829117 5.720224,96.634682 
	C17.486082,84.838440 29.355042,73.143486 41.004116,61.233288 
	C44.235485,57.929493 46.846569,54.018135 49.732723,50.377983 
	C50.970348,48.817039 51.866837,46.707924 53.460636,45.753124 
	C62.342304,40.432346 71.526520,35.608974 80.322899,30.156719 
	C84.615135,27.496267 88.326973,23.884155 92.230568,20.617994 
	C94.406807,18.797119 96.613037,14.809866 99.424530,17.527609 
	C102.331352,20.337521 97.934052,22.171120 96.331100,24.156225 
	C94.874046,25.960651 93.018761,27.437122 91.433807,29.146065 
	C88.582779,32.220116 85.813721,34.677773 80.957817,34.689049 
	C75.169220,34.702488 72.173714,39.713970 68.264778,43.360355 
	C64.730217,46.657516 57.081589,46.985607 55.411880,50.565468 
	C50.747105,60.566769 42.375736,66.904015 35.380783,74.549179 
	C28.195177,82.402718 20.314068,89.623116 12.670904,97.052254 
	C11.016262,98.660568 9.078503,99.977608 6.957674,101.680504 
	C44.159794,138.105118 80.534920,173.720032 117.329460,209.745575 
	C153.817093,173.779907 190.140762,137.975845 226.115845,102.515404 
	C212.727173,88.777237 199.627869,75.335983 186.273849,61.636162 
z"/>
<path fill="#070707" opacity="1.000000" stroke="none" 
	d="
M591.326477,129.391449 
	C589.701660,133.449478 588.238953,137.158264 586.779907,140.868515 
	C585.629028,143.795288 583.712097,145.296249 580.339417,145.274521 
	C577.029480,145.253189 575.062744,143.957443 573.873413,140.944443 
	C570.917664,133.456238 567.855896,126.009888 563.961670,118.711037 
	C563.961670,128.899185 563.961670,139.087326 563.961670,149.655853 
	C561.475098,149.655853 559.425720,149.655853 556.504395,149.655853 
	C556.504395,146.132935 556.503967,142.548904 556.504517,138.964859 
	C556.505737,130.971771 556.421204,122.977272 556.551514,114.986282 
	C556.603271,111.812729 555.841125,108.006500 560.767273,107.308365 
	C566.877930,106.442360 568.987854,107.452141 570.981018,112.466019 
	C573.975525,119.998711 576.989380,127.523682 580.371094,135.993988 
	C583.820129,127.404366 587.243225,119.883797 589.835388,112.086975 
	C591.707825,106.454880 595.785645,107.052437 599.877502,107.380638 
	C604.405762,107.743851 604.036804,111.392570 604.045410,114.553780 
	C604.077148,126.168800 604.057983,137.783966 604.057983,149.719238 
	C601.494385,149.719238 599.448364,149.719238 597.000732,149.719238 
	C597.000732,139.337494 597.000732,129.097351 597.000732,118.857193 
	C596.637634,118.749908 596.274536,118.642632 595.911438,118.535347 
	C594.437683,122.037849 592.963928,125.540344 591.326477,129.391449 
z"/>
<path fill="#0E0E0E" opacity="1.000000" stroke="none" 
	d="
M518.331299,116.331955 
	C517.751648,124.066345 517.316406,131.485535 517.383423,138.900192 
	C517.393372,139.998474 519.719116,141.923828 521.069580,142.013153 
	C526.507629,142.372833 531.983337,142.162125 537.849854,142.162125 
	C537.849854,138.754242 537.849854,135.674683 537.849854,132.113556 
	C533.677185,132.113556 529.260925,132.113556 524.411499,132.113556 
	C524.411499,129.447845 524.411499,127.245667 524.411499,124.205513 
	C530.589905,124.205513 536.851868,124.085358 543.098328,124.341370 
	C543.985596,124.377731 545.505615,126.227089 545.527100,127.262367 
	C545.644348,132.909088 545.545349,138.573532 545.198364,144.212051 
	C544.959473,148.095612 542.711975,150.159378 538.608643,150.085876 
	C532.784241,149.981537 526.953857,150.152283 521.131653,149.996414 
	C514.243164,149.811996 510.444946,147.186264 509.867554,140.495865 
	C509.172455,132.441422 509.425446,124.247002 509.989563,116.163536 
	C510.335693,111.203819 513.774963,107.906822 518.937744,107.666176 
	C526.909790,107.294579 534.904175,107.242828 542.886292,107.325974 
	C545.923645,107.357597 546.228760,108.663139 545.001587,115.037987 
	C538.585083,115.037987 532.004333,114.956177 525.427551,115.082855 
	C523.159302,115.126541 520.901062,115.689529 518.331299,116.331955 
z"/>
<path fill="#0D0D0D" opacity="1.000000" stroke="none" 
	d="
M566.114868,75.845398 
	C565.506897,88.963882 561.772339,92.602661 549.350891,92.628792 
	C544.698181,92.638580 540.044556,92.677597 535.392944,92.603935 
	C531.800964,92.547050 529.936157,90.787338 529.963013,87.016319 
	C530.038818,76.381958 530.024170,65.746811 530.008484,55.112026 
	C530.003296,51.589157 531.784973,49.901855 535.204102,49.882446 
	C541.019775,49.849434 546.838257,49.772156 552.651062,49.906994 
	C560.677551,50.093174 564.918640,53.852058 565.795227,61.925968 
	C566.277283,66.366577 566.036316,70.885689 566.114868,75.845398 
M537.716248,67.502716 
	C537.716248,73.221786 537.716248,78.940865 537.716248,84.834312 
	C543.101562,84.834312 547.729187,84.863983 552.356262,84.824722 
	C555.924988,84.794456 558.031433,82.973152 558.116882,79.380447 
	C558.246948,73.914253 558.567749,68.393364 557.928711,62.999836 
	C557.701294,61.080944 555.087891,58.211586 553.256409,57.953136 
	C548.277710,57.250549 543.134766,57.711899 537.716248,57.711899 
	C537.716248,60.924507 537.716248,63.712879 537.716248,67.502716 
z"/>
<path fill="#0E0E0E" opacity="1.000000" stroke="none" 
	d="
M468.755859,92.544983 
	C466.243225,89.166176 463.488251,86.089539 462.111572,82.486298 
	C459.314514,75.165489 454.251160,73.649689 446.876373,75.478920 
	C446.876373,79.902138 446.745605,84.514702 446.922333,89.115456 
	C447.040009,92.177948 445.488159,92.667183 442.929504,92.687271 
	C440.278961,92.708076 438.948792,92.002281 439.027771,89.031349 
	C439.191284,82.879776 439.163361,76.719093 439.037933,70.565750 
	C438.983978,67.918312 440.051361,67.072052 442.588379,67.117889 
	C448.742249,67.229080 454.904846,66.997612 461.053406,67.209633 
	C464.730560,67.336441 466.777313,66.267258 466.747864,62.280159 
	C466.717346,58.146523 464.293976,57.463947 460.820251,57.533539 
	C453.723663,57.675716 446.622284,57.576145 439.658386,57.576145 
	C438.485229,49.867638 438.485229,49.866409 445.385803,49.865524 
	C451.541718,49.864735 457.698608,49.797764 463.853241,49.886726 
	C470.542145,49.983418 473.433899,52.725460 474.193207,59.441307 
	C475.132629,67.750786 473.379120,71.630402 466.831238,75.352135 
	C469.846832,80.625900 472.865601,85.905251 476.424866,92.129852 
	C473.464600,92.324425 471.300934,92.466629 468.755859,92.544983 
z"/>
<path fill="#090909" opacity="1.000000" stroke="none" 
	d="
M443.703125,131.802185 
	C443.712982,125.325027 443.849335,119.322350 443.686432,113.327805 
	C443.578583,109.360413 445.242828,107.318161 449.177155,107.295197 
	C455.175262,107.260185 461.189880,107.066986 467.168396,107.425690 
	C474.488770,107.864899 478.420807,111.176239 479.076569,118.433777 
	C479.715576,125.505638 479.649017,132.739105 478.940430,139.806183 
	C478.288452,146.308884 473.916595,149.718079 467.330658,149.960464 
	C461.172882,150.187103 455.001099,150.041580 448.835480,150.043579 
	C445.339691,150.044708 443.648987,148.267609 443.674652,144.778473 
	C443.705322,140.612518 443.694977,136.446259 443.703125,131.802185 
M471.156494,139.454010 
	C471.360535,132.868835 471.863190,126.269569 471.553375,119.708672 
	C471.478302,118.119087 468.848328,115.529892 467.177399,115.344391 
	C462.009552,114.770691 456.737610,115.134819 451.426697,115.134819 
	C451.426697,124.358261 451.426697,133.073120 451.426697,142.271576 
	C455.412231,142.271576 459.204742,142.522827 462.944366,142.186325 
	C465.591095,141.948151 468.166290,140.914749 471.156494,139.454010 
z"/>
<path fill="#060809" opacity="1.000000" stroke="none" 
	d="
M120.074097,173.923340 
	C120.074036,167.106110 120.038994,160.775238 120.083824,154.444931 
	C120.127762,148.240448 121.553246,146.415985 127.368637,145.044510 
	C140.123581,142.036438 152.885056,139.056183 167.098267,135.723557 
	C151.040390,152.402481 135.971878,168.053802 120.074097,184.566452 
	C120.074097,180.523666 120.074097,177.466797 120.074097,173.923340 
z"/>
<path fill="#070707" opacity="1.000000" stroke="none" 
	d="
M364.251617,137.617035 
	C361.823975,130.091309 355.978882,132.829453 350.463226,132.408691 
	C350.463226,138.274841 350.463226,143.969940 350.463226,149.795929 
	C347.625610,149.795929 345.535980,149.795929 343.127991,149.795929 
	C343.127991,141.484802 343.127991,133.426254 343.127991,124.785866 
	C348.473511,124.785866 353.589661,124.785873 358.705841,124.785873 
	C369.646637,124.785873 370.610138,124.475639 370.175262,119.778107 
	C369.369720,111.076248 362.543121,115.909187 358.467712,115.198601 
	C353.937622,114.408730 349.169373,114.990509 344.505005,114.951836 
	C344.199829,114.949310 343.896332,114.748169 343.201630,114.499878 
	C343.201630,112.414093 343.201630,110.192543 343.201630,107.757446 
	C352.538696,107.757446 361.812592,107.571213 371.066071,107.923096 
	C372.803955,107.989182 375.000732,109.853706 376.060608,111.488220 
	C380.701569,118.645477 377.917114,128.807556 370.428406,132.748550 
	C373.473999,138.174744 376.519897,143.601501 379.746826,149.350769 
	C374.389679,150.743729 370.588409,150.715561 368.557068,145.359329 
	C367.566315,142.746948 365.836578,140.414841 364.251617,137.617035 
z"/>
<path fill="#050708" opacity="1.000000" stroke="none" 
	d="
M102.139557,143.929413 
	C104.339752,144.350525 106.116943,144.796295 107.920975,145.054581 
	C111.827858,145.613907 113.992561,148.082443 114.068665,151.737671 
	C114.284996,162.128616 114.144562,172.527023 114.144562,184.167648 
	C98.764580,168.100204 84.196938,152.881424 69.629295,137.662628 
	C69.797745,137.311310 69.966202,136.959991 70.134651,136.608658 
	C80.666008,139.028809 91.197372,141.448944 102.139557,143.929413 
z"/>
<path fill="#0B0B0B" opacity="1.000000" stroke="none" 
	d="
M318.327515,135.770721 
	C315.764984,129.422531 313.369629,123.421753 310.650726,116.610420 
	C308.275909,122.594994 306.232452,127.744499 303.952423,133.490219 
	C309.201447,133.267670 313.545288,134.104965 313.460266,141.637695 
	C310.363312,141.637695 307.136108,141.335815 304.009277,141.765045 
	C302.445557,141.979706 300.110382,143.267349 299.767059,144.519989 
	C298.285400,149.926102 294.960480,151.060883 289.604065,149.598495 
	C289.846375,148.436966 289.925354,147.170319 290.372772,146.050964 
	C294.814697,134.938843 299.352661,123.865074 303.781525,112.747803 
	C305.101807,109.433739 306.815735,106.742859 310.862030,106.869141 
	C314.665894,106.987854 316.161438,109.670784 317.404541,112.777878 
	C322.264221,124.924469 327.214081,137.034958 332.158020,149.226852 
	C324.581635,151.047684 324.458954,150.984268 321.844421,144.445267 
	C320.733643,141.667221 319.611572,138.893707 318.327515,135.770721 
z"/>
<path fill="#0B0B0B" opacity="1.000000" stroke="none" 
	d="
M272.035706,62.126572 
	C270.222778,66.796921 268.521912,71.101257 266.578888,76.018417 
	C272.373718,75.509666 276.548340,76.738029 275.874176,83.872437 
	C271.735931,83.872437 267.647736,83.872437 263.800354,83.872437 
	C258.977203,93.554146 258.977203,93.554146 251.796066,91.738220 
	C254.296829,85.418213 256.749390,79.149559 259.256714,72.902885 
	C261.853607,66.433128 264.251282,59.862556 267.282684,53.600693 
	C268.202301,51.701118 270.875549,49.665054 272.858582,49.544094 
	C274.824646,49.424168 278.037201,51.156872 278.802490,52.907772 
	C284.367767,65.640274 289.452759,78.582703 294.696320,91.475327 
	C288.179840,93.791092 287.070801,93.346199 284.878143,87.912781 
	C281.131104,78.627449 277.381561,69.343109 273.424194,59.540970 
	C272.784912,60.652645 272.466370,61.206596 272.035706,62.126572 
z"/>
<path fill="#090909" opacity="1.000000" stroke="none" 
	d="
M410.260315,119.614105 
	C408.406830,124.394318 406.693054,128.836060 404.873901,133.551010 
	C408.694244,133.948792 412.812317,132.605087 413.992279,137.780624 
	C414.576660,140.343704 414.350616,141.655243 411.475128,141.633881 
	C409.313538,141.617813 407.046844,141.229568 405.022125,141.756653 
	C403.304688,142.203751 401.150024,143.371170 400.431152,144.831436 
	C397.576447,150.630203 397.756927,150.719055 390.000549,149.415390 
	C390.987366,146.901062 391.911530,144.497238 392.871918,142.107986 
	C396.831421,132.257385 400.838165,122.425568 404.747375,112.555092 
	C405.994263,109.406799 407.676514,106.888664 411.437897,106.865051 
	C415.206268,106.841385 416.896271,109.329254 418.161865,112.489601 
	C422.601898,123.576889 427.157928,134.617691 431.636261,145.689774 
	C432.115417,146.874496 432.373810,148.148499 432.797913,149.597519 
	C427.918884,150.631821 424.611420,150.547592 422.718445,144.837219 
	C419.623138,135.499680 415.490356,126.506020 411.635071,116.971275 
	C411.024841,118.109894 410.712463,118.692764 410.260315,119.614105 
z"/>
<path fill="#090909" opacity="1.000000" stroke="none" 
	d="
M253.083603,107.271446 
	C258.065460,107.271858 262.560211,107.216904 267.053162,107.284927 
	C274.902252,107.403770 277.850525,110.181046 278.353943,118.057800 
	C278.490631,120.196198 278.370636,122.399765 278.007904,124.511497 
	C277.169342,129.393768 274.323242,132.195038 269.175568,132.261475 
	C266.180237,132.300125 263.184753,132.332504 260.189209,132.347916 
	C257.364655,132.362442 254.539948,132.351044 251.008530,132.351044 
	C251.008530,138.204956 251.008530,143.884888 251.008530,149.793304 
	C248.211746,149.793304 246.119247,149.793304 243.600525,149.793304 
	C243.600525,141.649796 243.600525,133.608444 243.600525,124.776833 
	C251.073273,124.776833 258.490143,124.676514 265.902344,124.818642 
	C269.677673,124.891037 270.954620,123.022438 270.851471,119.612770 
	C270.763092,116.690208 269.656006,114.939217 266.352539,114.998672 
	C260.196198,115.109467 254.035645,114.972145 247.878387,115.053398 
	C245.192413,115.088837 243.103516,115.202377 243.064774,111.334137 
	C243.024307,107.293068 245.132874,107.059380 248.102875,107.254707 
	C249.594391,107.352798 251.097717,107.271576 253.083603,107.271446 
z"/>
<path fill="#080B0B" opacity="1.000000" stroke="none" 
	d="
M68.557205,130.436844 
	C62.071098,128.091446 55.965633,125.887436 49.860172,123.683426 
	C49.990631,123.252190 50.121086,122.820953 50.251545,122.389717 
	C71.369476,122.389717 92.487411,122.389717 113.915955,122.389717 
	C113.915955,128.479858 113.915955,134.528778 113.915955,141.122803 
	C98.807602,137.580826 83.872726,134.079529 68.557205,130.436844 
z"/>
<path fill="#0A0C0D" opacity="1.000000" stroke="none" 
	d="
M132.469269,138.375000 
	C128.211029,139.396942 124.353004,140.296921 120.238480,141.256714 
	C120.238480,134.854980 120.238480,128.881546 120.238480,122.531052 
	C141.130280,122.531052 162.051208,122.531052 182.972122,122.531052 
	C167.284607,131.371918 149.773758,133.819366 132.469269,138.375000 
z"/>
<path fill="#090909" opacity="1.000000" stroke="none" 
	d="
M428.096863,70.982025 
	C428.482391,74.520638 426.714661,74.950035 424.162598,74.909050 
	C417.382416,74.800148 410.599365,74.872070 403.878632,74.872070 
	C403.130096,81.949783 404.097168,83.112503 410.451447,83.149017 
	C416.089355,83.181412 421.727600,83.155800 427.976044,83.155800 
	C428.123566,86.119820 428.258392,88.828430 428.401581,91.705338 
	C419.702698,91.705338 411.315948,92.079514 403.006439,91.443718 
	C400.914429,91.283653 397.768494,88.126976 397.368561,85.934792 
	C396.380066,80.516502 395.186920,74.316650 396.929108,69.452827 
	C398.620789,64.729965 404.967804,67.515541 409.243622,67.200050 
	C414.369629,66.821831 419.547089,67.202377 424.696136,67.049072 
	C427.323822,66.970825 428.400330,67.964111 428.096863,70.982025 
z"/>
<path fill="#090909" opacity="1.000000" stroke="none" 
	d="
M487.150787,69.724823 
	C489.080872,68.585594 490.817200,67.283279 492.594574,67.224655 
	C500.072693,66.978004 507.566101,67.221817 515.047546,67.033676 
	C518.075012,66.957542 519.112854,67.893448 519.102905,70.987480 
	C519.092896,74.103676 517.978516,75.004272 514.989075,74.927368 
	C508.211365,74.753014 501.426086,74.872475 494.704926,74.872475 
	C494.011566,81.969765 494.967163,83.111694 501.301727,83.148781 
	C507.076660,83.182594 512.851929,83.155952 518.907593,83.155952 
	C518.907593,86.500183 518.907593,89.228897 518.907593,92.197197 
	C511.180115,92.197197 503.708130,92.490471 496.272217,92.098648 
	C490.921539,91.816711 487.823212,88.430389 487.154938,82.567490 
	C486.687866,78.469360 487.007599,74.281555 487.150787,69.724823 
z"/>
<path fill="#0E0E0E" opacity="1.000000" stroke="none" 
	d="
M370.013550,64.042221 
	C370.013519,73.522186 370.013519,82.507881 370.013519,91.397804 
	C363.330444,94.007599 362.216095,93.275612 362.213501,86.508629 
	C362.209869,77.046783 362.212585,67.584938 362.212585,57.575962 
	C359.114197,57.575962 356.342529,57.577896 353.570892,57.575584 
	C346.881256,57.570011 346.610077,57.209656 348.240051,49.866009 
	C359.405182,49.866009 370.689484,49.779015 381.966919,50.017899 
	C382.954865,50.038826 384.724762,52.248848 384.656708,53.350998 
	C384.567047,54.803062 383.158539,57.227802 382.069183,57.372852 
	C378.308929,57.873531 374.441040,57.565613 370.013611,57.565613 
	C370.013611,59.677399 370.013611,61.612675 370.013550,64.042221 
z"/>
<path fill="#0D0D0D" opacity="1.000000" stroke="none" 
	d="
M306.426208,50.117805 
	C308.657959,49.935577 310.470703,49.935577 313.100342,49.935577 
	C313.100342,56.880604 313.149536,63.618969 313.090698,70.356392 
	C312.941956,87.384720 313.177032,84.650551 327.667358,84.852242 
	C329.328461,84.875366 331.000763,84.974586 332.649200,84.828224 
	C335.489288,84.576057 336.929321,85.356987 336.877747,88.611931 
	C336.830261,91.608078 335.882507,92.802803 332.816742,92.674301 
	C327.013611,92.431068 321.192963,92.584129 315.392731,92.301857 
	C310.463440,92.061958 306.691925,89.125954 306.432861,84.459488 
	C305.802277,73.100128 306.089600,61.689819 306.426208,50.117805 
z"/>
<path fill="#030303" opacity="1.000000" stroke="none" 
	d="
M498.237762,138.977158 
	C498.237762,142.759293 498.237762,146.045074 498.237762,149.681396 
	C495.721405,149.681396 493.662628,149.681396 491.169403,149.681396 
	C491.025452,148.575302 490.724213,147.320129 490.720154,146.063980 
	C490.683136,134.620728 490.759613,123.176750 490.654907,111.734329 
	C490.627991,108.794151 491.070526,107.140930 494.664856,107.187843 
	C498.150757,107.233345 498.282990,109.026260 498.262939,111.613960 
	C498.193604,120.569099 498.237152,129.525116 498.237762,138.977158 
z"/>
<path fill="#010101" opacity="1.000000" stroke="none" 
	d="
M417.978088,49.817917 
	C421.451569,49.817913 424.429199,49.817913 427.852966,49.817913 
	C427.852966,52.278316 427.852966,54.473419 427.852966,57.057098 
	C417.364075,57.057098 406.857483,57.057098 396.088226,57.057098 
	C396.088226,54.682392 396.088226,52.604729 396.088226,49.817917 
	C403.306488,49.817917 410.394348,49.817917 417.978088,49.817917 
z"/>
<path fill="#010101" opacity="1.000000" stroke="none" 
	d="
M510.949280,49.817917 
	C513.748291,49.817913 516.055176,49.817913 518.770142,49.817913 
	C518.770142,52.338928 518.770142,54.531879 518.770142,57.087540 
	C508.315887,57.087540 497.925232,57.087540 487.117584,57.087540 
	C487.117584,54.856018 487.117584,52.660137 487.117584,49.817917 
	C494.940857,49.817917 502.699036,49.817917 510.949280,49.817917 
z"/>
<path fill="#080B0B" opacity="1.000000" stroke="none" 
	d="
M191.658249,94.740128 
	C188.599045,94.971825 185.833008,95.758827 183.385559,95.185600 
	C182.105606,94.885811 180.213821,91.739296 180.630371,90.670357 
	C181.922104,87.355728 184.224457,84.442406 186.065079,81.332214 
	C188.143661,77.819969 190.962753,78.179039 192.726089,80.970787 
	C195.094879,84.721107 196.538055,89.056061 198.620209,93.676178 
	C195.584381,94.166039 193.834000,94.448471 191.658249,94.740128 
z"/>
<path fill="#0A0C0D" opacity="1.000000" stroke="none" 
	d="
M43.270615,94.741272 
	C41.038982,94.488731 39.247234,94.236633 36.017551,93.782219 
	C37.895950,89.254738 39.173492,84.883690 41.437389,81.103325 
	C43.465031,77.717476 46.283497,78.053261 48.459831,81.409645 
	C50.352283,84.328217 52.035664,87.387199 53.717762,90.435814 
	C55.095444,92.932716 53.631519,95.303467 50.668098,95.275558 
	C48.347427,95.253693 46.029591,94.930847 43.270615,94.741272 
z"/>
<path fill="#0F1112" opacity="1.000000" stroke="none" 
	d="
M113.553223,16.672831 
	C113.163841,15.166814 112.456306,13.608491 112.951378,12.721048 
	C113.972839,10.889984 115.635742,9.416750 117.202095,7.602506 
	C119.078255,9.852748 120.812706,11.933035 122.663322,14.152638 
	C120.877823,16.621334 119.022270,19.186886 117.000694,21.981989 
	C115.854057,20.181580 114.816795,18.552917 113.553223,16.672831 
z"/>
<path fill="#E8E8E8" opacity="1.000000" stroke="none" 
	d="
M149.654053,81.931183 
	C150.369598,80.277809 151.026367,78.912094 151.942810,77.751427 
	C155.966522,72.655464 158.174652,67.474258 154.331985,61.109848 
	C153.674713,60.021229 154.966278,57.755936 155.357544,56.034218 
	C156.397568,57.306004 158.193161,58.491447 158.350021,59.864166 
	C159.129868,66.688194 163.349777,68.629852 169.461945,69.125198 
	C171.810257,69.315498 175.514374,68.459595 176.127884,72.608910 
	C173.587433,72.826836 170.950027,73.591606 168.524460,73.161583 
	C160.818436,71.795364 160.859009,71.629539 156.468430,78.633835 
	C155.589569,80.035873 154.854355,81.747833 153.575394,82.601517 
	C152.729538,83.166122 151.031387,82.453842 149.654053,81.931183 
z"/>
<path fill="#E8E8E8" opacity="1.000000" stroke="none" 
	d="
M58.442932,72.266212 
	C62.003647,70.734360 65.420433,69.105949 68.999611,68.577591 
	C72.697098,68.031754 74.584106,66.425926 75.134102,62.868538 
	C75.335487,61.565994 75.465721,60.097927 76.163422,59.067703 
	C76.947548,57.909878 78.336403,57.161591 79.462173,56.235142 
	C79.721298,57.508595 80.067764,58.772942 80.201889,60.059429 
	C80.266769,60.681705 80.081398,61.434540 79.756531,61.976807 
	C76.540459,67.345024 78.047836,71.853386 81.721054,76.425835 
	C83.140762,78.193100 83.314621,80.961189 84.056068,83.273323 
	C82.134499,81.870155 80.211121,80.469444 78.295471,79.058243 
	C78.168907,78.965012 78.101334,78.791763 78.006187,78.655830 
	C73.208900,71.801872 73.234268,71.937675 64.629662,73.545036 
	C62.667255,73.911621 60.463181,72.984505 58.442932,72.266212 
z"/>
<path fill="#FCFCFC" opacity="1.000000" stroke="none" 
	d="
M537.716248,67.001984 
	C537.716248,63.712879 537.716248,60.924507 537.716248,57.711899 
	C543.134766,57.711899 548.277710,57.250549 553.256409,57.953136 
	C555.087891,58.211586 557.701294,61.080944 557.928711,62.999836 
	C558.567749,68.393364 558.246948,73.914253 558.116882,79.380447 
	C558.031433,82.973152 555.924988,84.794456 552.356262,84.824722 
	C547.729187,84.863983 543.101562,84.834312 537.716248,84.834312 
	C537.716248,78.940865 537.716248,73.221786 537.716248,67.001984 
z"/>
<path fill="#F9F9F9" opacity="1.000000" stroke="none" 
	d="
M470.964966,139.845184 
	C468.166290,140.914749 465.591095,141.948151 462.944366,142.186325 
	C459.204742,142.522827 455.412231,142.271576 451.426697,142.271576 
	C451.426697,133.073120 451.426697,124.358261 451.426697,115.134819 
	C456.737610,115.134819 462.009552,114.770691 467.177399,115.344391 
	C468.848328,115.529892 471.478302,118.119087 471.553375,119.708672 
	C471.863190,126.269569 471.360535,132.868835 470.964966,139.845184 
z"/>
</svg>